HIERARCHY
ROOT Hips
{
	OFFSET 0.000000 93.594000 0.000000
	CHANNELS 6 Xposition Yposition Zposition Yrotation Xrotation Zrotation
	JOINT RightUpLeg
	{
		OFFSET -9.500000 -1.594000 0.000000
		CHANNELS 3 Yrotation Xrotation Zrotation
		JOINT RightLeg
		{
			OFFSET 0.000000 -42.000000 0.000000
			CHANNELS 3 Yrotation Xrotation Zrotation
			JOINT RightFoot
			{
				OFFSET 0.000000 -42.000000 0.000000
				CHANNELS 3 Yrotation Xrotation Zrotation
				End Site
				{
					OFFSET 0.000000 -8.000000 17.500000
				}
			}
		}
	}
	JOINT LeftUpLeg
	{
		OFFSET 9.500000 -1.594000 0.000000
		CHANNELS 3 Yrotation Xrotation Zrotation
		JOINT LeftLeg
		{
			OFFSET 0.000000 -42.000000 0.000000
			CHANNELS 3 Yrotation Xrotation Zrotation
			JOINT LeftFoot
			{
				OFFSET 0.000000 -42.000000 0.000000
				CHANNELS 3 Yrotation Xrotation Zrotation
				End Site
				{
					OFFSET 0.000000 -8.000000 17.500000
				}
			}
		}
	}
	JOINT Spine
	{
		OFFSET 0.000000 14.348000 0.000000
		CHANNELS 3 Yrotation Xrotation Zrotation
		JOINT Spine1
		{
			OFFSET 0.000000 9.746000 0.000000
			CHANNELS 3 Yrotation Xrotation Zrotation
			JOINT Spine2
			{
				OFFSET 0.000000 10.149000 0.000000
				CHANNELS 3 Yrotation Xrotation Zrotation
				JOINT Spine3
				{
					OFFSET 0.000000 9.746000 0.000000
					CHANNELS 3 Yrotation Xrotation Zrotation
					JOINT Neck
					{
						OFFSET 0.000000 10.417000 0.000000
						CHANNELS 3 Yrotation Xrotation Zrotation
						JOINT Head
						{
							OFFSET 0.000000 9.000000 0.000000
							CHANNELS 3 Yrotation Xrotation Zrotation
							End Site
							{
								OFFSET 0.000000 16.000000 0.000000
							}
						}
					}
					JOINT RightShoulder
					{
						OFFSET -3.200000 6.945000 0.000000
						CHANNELS 3 Yrotation Xrotation Zrotation
						JOINT RightArm
						{
							OFFSET -12.800000 0.000000 0.000000
							CHANNELS 3 Yrotation Xrotation Zrotation
							JOINT RightForeArm
							{
								OFFSET -27.000000 0.000000 0.000000
								CHANNELS 3 Yrotation Xrotation Zrotation
								JOINT RightHand
								{
									OFFSET -26.000000 0.000000 0.000000
									CHANNELS 3 Yrotation Xrotation Zrotation
									End Site
									{
										OFFSET -3.479000 0.532000 0.778000
									}
								}
							}
						}
					}
					JOINT LeftShoulder
					{
						OFFSET 3.200000 6.945000 0.000000
						CHANNELS 3 Yrotation Xrotation Zrotation
						JOINT LeftArm
						{
							OFFSET 12.800000 0.000000 0.000000
							CHANNELS 3 Yrotation Xrotation Zrotation
							JOINT LeftForeArm
							{
								OFFSET 27.000000 0.000000 0.000000
								CHANNELS 3 Yrotation Xrotation Zrotation
								JOINT LeftHand
								{
									OFFSET 26.000000 0.000000 0.000000
									CHANNELS 3 Yrotation Xrotation Zrotation
									End Site
									{
										OFFSET 3.479000 0.532000 0.778000
									}
								}
							}
						}
					}
				}
			}
		}
	}
}
MOTION
Frames: 15
Frame Time: 0.041667
18.15 89.44 30.13 -145.86 3.1 0.16 4.38 -30.79 -7.18 0.0 17.94 0.0 23.51 7.76 9.65 -0.03 -2.01 -2.21 0.0 41.49 -0.0 0.16 -12.25 2.66 -9.13 5.42 -2.24 -2.3 1.31 -0.48 -3.84 2.1 -0.82 1.04 0.32 0.04 1.05 0.32 0.04 19.52 5.74 1.61 -7.14 -7.99 -1.55 -10.85 31.79 56.54 36.28 33.28 22.62 19.94 -3.06 -12.83 -15.2 -5.3 -1.21 -22.29 -35.93 -32.32 -63.14 -13.27 6.64 -6.93 -12.02 63.23
18.14 89.44 30.16 -145.94 3.05 0.15 4.38 -30.74 -7.17 0.0 17.89 -0.0 23.58 7.79 9.68 0.0 -1.96 -2.24 -0.0 41.49 -0.0 0.22 -12.26 2.65 -9.14 5.41 -2.24 -2.3 1.31 -0.48 -3.84 2.1 -0.82 1.05 0.32 0.04 1.05 0.32 0.04 19.54 5.75 1.6 -7.18 -7.93 -1.58 -10.71 31.76 56.57 35.56 33.4 22.32 20.55 -2.92 -12.88 -15.27 -5.29 -1.18 -22.69 -35.87 -32.11 -63.48 -13.25 6.7 -6.68 -11.48 62.79
18.13 89.43 30.18 -146.01 3.01 0.14 4.4 -30.69 -7.15 0.0 17.85 0.0 23.64 7.81 9.69 0.0 -1.94 -2.26 0.0 41.54 0.0 0.25 -12.25 2.64 -9.26 5.37 -2.21 -2.33 1.3 -0.47 -3.89 2.08 -0.8 1.06 0.32 0.03 1.06 0.32 0.03 19.72 5.82 1.56 -7.03 -7.82 -1.68 -10.86 31.77 56.46 35.07 33.68 22.13 20.57 -3.11 -12.58 -15.16 -5.23 -1.24 -22.98 -35.79 -31.93 -63.91 -13.2 6.74 -6.42 -10.91 62.28
18.13 89.43 30.2 -146.1 2.96 0.14 4.43 -30.65 -7.14 0.0 17.81 -0.0 23.69 7.83 9.72 0.02 -1.92 -2.29 -0.0 41.57 -0.0 0.3 -12.24 2.62 -9.26 5.38 -2.21 -2.33 1.3 -0.47 -3.89 2.08 -0.8 1.06 0.32 0.03 1.06 0.32 0.03 19.73 5.81 1.55 -7.05 -7.78 -1.71 -11.01 31.75 56.34 34.59 34.01 21.95 20.6 -3.28 -12.29 -15.23 -5.23 -1.23 -23.34 -35.7 -31.74 -64.3 -13.11 6.81 -6.16 -10.35 61.73
18.12 89.42 30.22 -146.16 2.93 0.13 4.43 -30.63 -7.12 -0.0 17.79 -0.0 23.75 7.85 9.73 -0.01 -1.94 -2.32 -0.0 41.66 0.0 0.3 -12.2 2.61 -9.28 5.39 -2.21 -2.34 1.3 -0.47 -3.9 2.09 -0.8 1.06 0.32 0.03 1.07 0.32 0.03 19.76 5.79 1.55 -6.95 -7.77 -1.73 -11.73 31.75 55.98 34.47 34.62 21.99 18.2 -4.02 -10.81 -15.25 -5.22 -1.22 -23.67 -35.61 -31.57 -64.72 -12.99 6.89 -5.88 -9.79 61.16
18.12 89.42 30.24 -146.24 2.88 0.13 4.45 -30.59 -7.1 -0.0 17.76 0.0 23.81 7.88 9.75 -0.0 -1.92 -2.35 -0.0 41.69 -0.0 0.35 -12.2 2.6 -9.29 5.4 -2.21 -2.34 1.31 -0.47 -3.9 2.09 -0.8 1.06 0.32 0.03 1.07 0.32 0.03 19.77 5.77 1.55 -6.86 -7.76 -1.76 -11.9 31.75 55.91 33.97 34.92 21.75 18.18 -4.11 -10.73 -15.26 -5.22 -1.23 -24.09 -35.53 -31.36 -65.08 -12.87 6.98 -5.63 -9.24 60.53
18.11 89.41 30.26 -146.32 2.84 0.12 4.45 -30.55 -7.08 -0.0 17.72 0.0 23.87 7.91 9.76 -0.01 -1.9 -2.37 -0.0 41.74 0.0 0.4 -12.19 2.57 -9.24 5.43 -2.21 -2.33 1.32 -0.47 -3.88 2.1 -0.8 1.05 0.32 0.03 1.06 0.32 0.03 19.71 5.73 1.57 -6.97 -7.74 -1.76 -11.94 31.73 55.89 33.46 35.2 21.51 18.16 -4.22 -10.74 -15.35 -5.22 -1.23 -24.4 -35.44 -31.21 -65.49 -12.7 7.02 -5.39 -8.72 59.91
18.1 89.4 30.28 -146.39 2.79 0.11 4.47 -30.51 -7.06 0.0 17.7 -0.0 23.92 7.93 9.78 -0.0 -1.87 -2.39 -0.0 41.78 0.0 0.46 -12.19 2.55 -9.2 5.46 -2.21 -2.32 1.32 -0.47 -3.86 2.11 -0.8 1.05 0.32 0.04 1.06 0.32 0.04 19.64 5.69 1.6 -7.08 -7.73 -1.76 -11.96 31.73 55.85 32.98 35.43 21.29 18.13 -4.35 -10.83 -15.43 -5.23 -1.23 -24.74 -35.36 -31.05 -65.84 -12.52 7.07 -5.16 -8.24 59.27
18.1 89.4 30.29 -146.46 2.75 0.09 4.46 -30.47 -7.03 0.0 17.67 -0.0 23.99 7.95 9.79 0.0 -1.84 -2.41 -0.0 41.82 0.0 0.52 -12.19 2.52 -9.15 5.48 -2.22 -2.31 1.33 -0.47 -3.84 2.13 -0.8 1.05 0.31 0.04 1.06 0.32 0.04 19.57 5.65 1.63 -7.32 -7.7 -1.74 -11.7 31.69 55.87 32.4 35.6 21.01 18.64 -4.31 -10.88 -15.52 -5.25 -1.23 -24.98 -35.29 -30.94 -66.21 -12.31 7.06 -4.67 -8.35 59.62
18.09 89.39 30.31 -146.53 2.71 0.08 4.45 -30.44 -6.99 -0.0 17.64 0.0 24.06 7.96 9.81 -0.0 -1.82 -2.43 -0.0 41.85 -0.0 0.58 -12.19 2.5 -9.11 5.51 -2.22 -2.3 1.34 -0.47 -3.83 2.14 -0.81 1.04 0.31 0.04 1.05 0.31 0.04 19.5 5.62 1.66 -7.39 -7.71 -1.74 -11.63 31.7 55.87 31.91 35.73 20.78 19.06 -4.28 -10.93 -15.58 -5.28 -1.23 -25.24 -35.23 -30.83 -66.55 -12.11 7.03 -4.2 -8.48 59.95
18.09 89.39 30.32 -146.58 2.67 0.06 4.42 -30.4 -6.95 -0.0 17.61 -0.0 24.12 7.97 9.82 -0.02 -1.81 -2.44 -0.0 41.89 0.0 0.63 -12.19 2.47 -9.25 5.49 -2.21 -2.33 1.33 -0.47 -3.89 2.13 -0.8 1.05 0.31 0.04 1.06 0.32 0.04 19.68 5.64 1.68 -7.17 -7.68 -1.77 -11.74 31.71 55.79 31.58 35.97 20.63 19.45 -4.25 -10.98 -15.37 -5.25 -1.3 -25.42 -35.18 -30.73 -66.89 -11.88 6.96 -3.77 -8.62 60.29
18.09 89.38 30.34 -146.64 2.63 0.06 4.4 -30.38 -6.93 -0.0 17.59 0.0 24.18 7.98 9.83 -0.03 -1.79 -2.46 0.0 41.92 -0.0 0.66 -12.19 2.45 -9.23 5.49 -2.22 -2.33 1.33 -0.47 -3.88 2.13 -0.8 1.05 0.32 0.04 1.06 0.32 0.04 19.62 5.64 1.73 -7.18 -7.67 -1.77 -11.86 31.71 55.73 31.25 36.2 20.49 19.81 -4.22 -11.03 -15.39 -5.25 -1.32 -25.61 -35.12 -30.65 -67.21 -11.64 6.88 -3.36 -8.78 60.62
18.09 89.38 30.35 -146.67 2.6 0.04 4.35 -30.36 -6.89 0.0 17.59 -0.0 24.25 7.97 9.84 -0.02 -1.78 -2.45 0.0 41.96 0.0 0.64 -12.18 2.43 -9.23 5.5 -2.23 -2.33 1.33 -0.47 -3.88 2.13 -0.81 1.05 0.32 0.05 1.05 0.32 0.05 19.56 5.63 1.79 -7.2 -7.65 -1.75 -11.99 31.72 55.67 30.98 36.41 20.38 19.65 -4.38 -11.16 -15.42 -5.24 -1.33 -25.71 -35.05 -30.61 -67.56 -11.39 6.78 -3.23 -8.38 59.97
18.09 89.37 30.36 -146.71 2.57 0.04 4.31 -30.35 -6.86 -0.0 17.6 0.0 24.32 7.97 9.85 -0.0 -1.77 -2.46 -0.0 42.0 -0.0 0.63 -12.18 2.42 -9.22 5.5 -2.23 -2.32 1.33 -0.47 -3.87 2.13 -0.81 1.04 0.32 0.05 1.05 0.32 0.05 19.5 5.62 1.84 -7.2 -7.64 -1.74 -11.97 31.75 55.67 30.66 36.51 20.23 19.47 -4.53 -11.32 -15.44 -5.25 -1.33 -25.81 -34.97 -30.6 -67.87 -11.15 6.71 -3.12 -7.96 59.33
18.09 89.37 30.38 -146.73 2.54 0.03 4.26 -30.33 -6.83 -0.0 17.59 0.0 24.38 7.98 9.86 -0.01 -1.75 -2.46 -0.0 42.03 -0.0 0.67 -12.19 2.42 -9.21 5.52 -2.24 -2.32 1.34 -0.47 -3.87 2.14 -0.81 1.04 0.32 0.05 1.05 0.32 0.05 19.45 5.61 1.88 -7.2 -7.63 -1.72 -11.93 31.77 55.69 30.39 36.6 20.11 17.93 -5.2 -11.71 -15.47 -5.26 -1.35 -25.84 -34.88 -30.61 -68.21 -10.91 6.63 -3.59 -5.78 56.15
